<?xml version="1.0" encoding="UTF-8" standalone="no"?>
<!-- Generator: Adobe Illustrator 16.0.0, SVG Export Plug-In . SVG Version: 6.00 Build 0)  -->

<svg
   xmlns:dc="http://purl.org/dc/elements/1.1/"
   xmlns:cc="http://creativecommons.org/ns#"
   xmlns:rdf="http://www.w3.org/1999/02/22-rdf-syntax-ns#"
   xmlns:svg="http://www.w3.org/2000/svg"
   xmlns="http://www.w3.org/2000/svg"
   xmlns:sodipodi="http://sodipodi.sourceforge.net/DTD/sodipodi-0.dtd"
   xmlns:inkscape="http://www.inkscape.org/namespaces/inkscape"
   version="1.1"
   x="0px"
   y="0px"
   width="317.76599"
   height="284.65302"
   viewBox="0 0 317.76599 284.65302"
   enable-background="new 0 0 792 612"
   xml:space="preserve"
   id="svg104"
   sodipodi:docname="tensult-text-logo1.svg"
   inkscape:version="0.92.2 5c3e80d, 2017-08-06"><metadata
     id="metadata110"><rdf:RDF><cc:Work
         rdf:about=""><dc:format>image/svg+xml</dc:format><dc:type
           rdf:resource="http://purl.org/dc/dcmitype/StillImage" /><dc:title></dc:title></cc:Work></rdf:RDF></metadata><defs
     id="defs108" /><sodipodi:namedview
     pagecolor="#ffffff"
     bordercolor="#666666"
     borderopacity="1"
     objecttolerance="10"
     gridtolerance="10"
     guidetolerance="10"
     inkscape:pageopacity="0"
     inkscape:pageshadow="2"
     inkscape:window-width="1440"
     inkscape:window-height="855"
     id="namedview106"
     showgrid="false"
     fit-margin-top="0"
     fit-margin-left="0"
     fit-margin-right="0"
     fit-margin-bottom="0"
     showborder="false"
     inkscape:zoom="1.0490196"
     inkscape:cx="113.516"
     inkscape:cy="141.43201"
     inkscape:window-x="0"
     inkscape:window-y="1"
     inkscape:window-maximized="1"
     inkscape:current-layer="svg104" /><g
     id="Layer_2"
     transform="translate(-282.484,-162.779)" /><g
     id="Layer_1"
     transform="translate(-282.484,-162.779)"><ellipse
       cx="356.367"
       cy="302.39001"
       rx="73.883003"
       ry="73.898003"
       id="ellipse81"
       style="fill:#40a977" /><ellipse
       cx="526.367"
       cy="302.39001"
       rx="73.883003"
       ry="73.897003"
       id="ellipse83"
       style="fill:#40a977" /><polygon
       points="487.667,233.833 523.59,262.091 497.334,288 443.967,343.494 378.333,322.667 375,274.5 451,261.833 "
       id="polygon85"
       style="fill:#ffffff" /><path
       d="m 436.658,162.779 c 3.214,0 6.428,0 9.642,0 2.908,0.306 5.97,0.459 8.877,0.918 10.255,1.53 20.203,4.591 29.387,9.489 22.498,12.245 37.192,30.764 44.385,55.252 0.459,1.377 0.459,1.377 1.837,1.377 4.897,0 9.643,0.612 14.234,1.837 12.855,3.214 23.569,9.948 32.141,19.896 11.021,12.55 16.684,27.243 16.836,43.927 0,6.428 0,12.856 0,19.284 0,3.061 -0.307,6.275 -0.766,9.337 -2.295,14.233 -8.571,26.324 -19.438,35.968 -12.244,10.865 -26.631,16.223 -43.008,16.223 -59.69,0 -119.382,0 -179.072,0 -9.489,0 -18.672,-1.989 -27.396,-5.816 -19.438,-8.724 -33.212,-26.631 -35.967,-47.905 0,-0.459 0,-33.978 0,-34.437 0.918,-7.958 3.367,-15.458 7.041,-22.499 7.652,-14.234 18.826,-24.794 33.825,-31.07 7.346,-3.061 14.999,-4.591 22.958,-4.591 1.378,0 1.225,0.153 1.684,-1.377 0.612,-2.143 1.225,-4.286 1.99,-6.428 8.264,-22.346 22.958,-39.182 44.232,-49.896 9.03,-4.591 18.673,-7.5 28.621,-8.877 2.6,-0.152 5.355,-0.306 7.957,-0.612 z m -12.551,172.337 c 1.837,0 3.062,-0.152 4.285,-0.459 2.755,-0.765 5.051,-2.296 7.041,-4.285 21.121,-21.121 42.242,-42.243 63.363,-63.364 0.153,-0.153 0.307,-0.306 0.459,-0.459 3.98,-4.592 5.052,-9.795 2.756,-15.458 -2.296,-5.663 -6.888,-8.724 -13.01,-9.03 -4.285,-0.153 -7.806,1.378 -10.867,4.439 -16.683,16.682 -33.519,33.519 -50.201,50.201 -0.459,0.459 -0.765,0.765 -1.224,1.072 -1.378,1.071 -3.368,1.071 -4.592,-0.154 -0.307,-0.306 -0.612,-0.459 -0.766,-0.765 -5.969,-5.969 -12.091,-12.091 -18.061,-18.061 -3.061,-3.061 -6.887,-4.592 -11.325,-4.438 -8.571,0.459 -15,8.724 -13.316,17.142 0.612,3.061 1.99,5.51 4.132,7.653 10.408,10.407 20.968,20.968 31.376,31.375 0.152,0.154 0.459,0.46 0.611,0.613 2.911,2.755 6.126,3.978 9.339,3.978 z"
       id="path87"
       inkscape:connector-curvature="0"
       style="fill:#40a977" /><path
       d="m 497.573,441.947 c -0.307,0 -0.459,0.307 -0.613,0.613 -2.142,2.907 -5.05,4.438 -8.57,4.744 -1.684,0.153 -3.52,0.153 -5.204,-0.307 -4.744,-1.377 -7.346,-4.592 -8.418,-9.183 -0.153,-1.072 -0.306,-2.144 -0.306,-3.214 0,-6.888 0,-13.775 0,-20.815 0,-0.153 0,-0.459 0,-0.612 0,-0.459 0.152,-0.612 0.612,-0.612 3.367,0 6.733,0 9.948,0 0.459,0 0.612,0.153 0.612,0.612 0,0.307 0,0.612 0,1.071 0,5.356 0,10.714 0,16.071 0,0.765 0,1.377 0.153,2.142 0.306,2.296 1.53,3.98 3.826,4.592 2.448,0.612 4.592,0 6.275,-1.989 1.07,-1.225 1.53,-2.755 1.684,-4.439 0,-0.918 0,-1.989 0,-2.907 0,-4.438 0,-8.877 0,-13.315 0,-0.307 0,-0.612 0,-0.918 0,-0.612 0.152,-0.919 0.918,-0.919 0.306,0 0.612,0 0.919,0 2.754,0 5.509,0 8.417,0 1.225,0 1.225,0 1.225,1.225 0,9.183 0,18.213 0,27.396 0,1.53 0,3.061 0,4.745 0,0.918 0,0.918 -0.918,0.918 -3.215,0 -6.275,0 -9.489,0 -0.919,0 -0.919,0 -0.919,-0.918 0,-1.072 0,-2.144 0,-3.215 10e-4,-0.307 0.154,-0.611 -0.152,-0.766 z"
       id="path89"
       inkscape:connector-curvature="0"
       style="fill:#42aa78" /><path
       d="m 411.403,417.766 c 0.46,0 0.46,-0.307 0.612,-0.46 2.909,-3.979 7.041,-5.356 11.785,-5.05 1.99,0.152 3.827,0.612 5.511,1.53 3.214,1.837 4.897,4.744 5.51,8.418 0.152,1.071 0.306,2.143 0.306,3.214 0,6.734 0,13.469 0,20.203 0,1.225 0,1.225 -1.225,1.225 -0.611,0 -1.224,0 -1.836,0 -2.296,0 -4.592,0 -7.041,0 -1.07,0 -1.07,0 -1.07,-1.071 0,-5.511 0,-11.021 0,-16.53 0,-0.765 0,-1.377 -0.154,-2.143 -0.612,-3.521 -3.367,-5.356 -6.734,-4.744 -3.367,0.611 -5.663,3.366 -5.663,7.04 0,5.051 0,10.102 0,15.152 0,0.306 0,0.612 0,1.071 0,1.377 0.153,1.225 -1.224,1.225 -2.908,0 -5.816,0 -8.571,0 -1.53,0 -1.377,0.152 -1.377,-1.378 0,-7.958 0,-16.07 0,-24.029 0,-2.602 0,-5.203 0,-7.806 0,-0.918 0,-0.918 0.918,-0.918 3.062,0 6.122,0 9.184,0 0.918,0 0.918,0 0.918,0.918 0.151,1.377 0.151,2.601 0.151,4.133 z"
       id="path91"
       inkscape:connector-curvature="0"
       style="fill:#40a977" /><path
       d="m 392.12,441.183 c -0.459,0.612 -0.919,1.071 -1.378,1.53 -2.755,2.449 -6.122,3.826 -9.642,4.285 -3.214,0.46 -6.428,0.46 -9.489,-0.459 -7.04,-1.837 -11.785,-7.346 -12.244,-14.693 -0.153,-2.448 -0.153,-5.051 0.612,-7.346 1.836,-6.582 6.275,-10.408 12.856,-11.785 3.061,-0.613 6.122,-0.613 9.183,0 6.428,1.377 10.102,5.509 11.785,11.632 0.612,2.296 0.765,4.744 0.765,7.193 0,1.225 0,1.225 -1.224,1.225 -7.04,0 -13.927,0 -20.968,0 -1.837,0 -1.99,0 -1.071,1.684 1.377,2.602 3.52,3.979 6.428,4.285 2.908,0.153 5.509,-0.766 7.805,-2.602 0.919,-0.766 0.919,-0.766 1.837,0.152 1.377,1.531 3.061,3.215 4.745,4.899 z m -15.612,-14.387 v 0 c 1.837,0 3.673,0 5.51,0 1.225,0 1.225,0 1.071,-1.225 -0.306,-3.214 -3.213,-6.122 -7.805,-5.203 -2.449,0.611 -4.745,3.213 -5.05,5.815 0,0.612 0.152,0.612 0.611,0.612 1.989,10e-4 3.826,10e-4 5.663,10e-4 z"
       id="path93"
       inkscape:connector-curvature="0"
       style="fill:#42aa78" /><path
       d="m 342.224,402.461 c 5.816,0 11.632,0 17.295,0 0.306,0 0.612,0 0.918,0 0.459,0 0.612,0.152 0.612,0.612 0,2.754 0,5.51 0,8.264 0,0.765 -0.459,0.765 -0.918,0.765 -3.52,0 -6.887,0 -10.408,0 -1.99,0 -1.99,0 -1.99,1.99 0,10.255 0,20.51 0,30.764 0,0.307 0,0.612 0,0.919 0,1.071 0,1.071 -1.071,1.071 -3.061,0 -6.122,0 -9.183,0 -1.225,0 -1.225,0 -1.225,-1.225 0,-7.5 0,-15 0,-22.499 0,-3.214 0,-6.275 0,-9.489 0,-1.684 0.153,-1.531 -1.53,-1.531 -3.521,0 -6.888,0 -10.408,0 -1.225,0 -1.225,0 -1.225,-1.224 0,-2.295 0,-4.744 0,-7.04 0,-1.377 0,-1.377 1.377,-1.377 5.971,0 11.94,0 17.756,0 z"
       id="path95"
       inkscape:connector-curvature="0"
       style="fill:#42aa78" /><path
       d="m 442.933,435.366 c 0.612,0 0.919,0.459 1.378,0.612 2.755,1.684 5.815,2.908 9.029,3.367 1.226,0.153 2.603,0.307 3.827,-0.152 0.918,-0.307 1.53,-0.613 1.684,-1.684 0,-0.919 -0.459,-1.531 -1.225,-1.99 -1.225,-0.612 -2.449,-0.918 -3.674,-1.378 -1.989,-0.611 -3.979,-1.224 -5.969,-1.989 -0.612,-0.307 -1.377,-0.612 -1.989,-0.918 -4.132,-2.603 -5.204,-5.663 -4.592,-10.103 0.46,-2.602 1.837,-4.744 3.979,-6.274 2.448,-1.837 5.356,-2.602 8.265,-2.756 5.204,-0.305 10.254,0.767 14.846,3.368 1.071,0.612 1.071,0.612 0.46,1.53 -0.919,1.837 -1.837,3.673 -2.908,5.51 -0.459,0.766 -0.459,0.766 -1.225,0.459 -2.296,-1.07 -4.438,-2.143 -6.887,-2.602 -1.225,-0.306 -2.296,-0.459 -3.521,-0.459 -0.612,0 -1.225,0.153 -1.837,0.459 -1.225,0.765 -1.378,2.143 -0.307,3.061 0.46,0.307 0.919,0.612 1.378,0.767 1.53,0.611 3.062,0.918 4.592,1.529 1.53,0.46 2.908,0.919 4.438,1.53 0.46,0.154 0.918,0.307 1.224,0.613 7.653,3.673 6.582,13.162 1.378,16.683 -2.448,1.53 -5.05,2.448 -7.806,2.755 -5.051,0.459 -9.795,-0.307 -14.387,-2.449 -1.071,-0.459 -2.143,-1.071 -3.061,-1.836 -0.307,-0.154 -0.612,-0.459 -0.46,-0.919 1.227,-2.294 2.299,-4.438 3.37,-6.734 z"
       id="path97"
       inkscape:connector-curvature="0"
       style="fill:#42aa78" /><path
       d="m 539.815,430.01 c 0,-2.296 0,-4.592 0,-6.888 0,-1.684 0.153,-1.53 -1.53,-1.53 -0.766,0 -1.53,0 -2.449,0 -0.612,0 -0.918,-0.153 -0.918,-0.766 0,-1.989 0,-3.979 0,-5.969 0,-0.612 0.152,-0.766 0.765,-0.766 1.071,0 2.143,0 3.215,0 0.612,0 0.918,-0.152 0.918,-0.918 0,-2.449 0,-5.051 0,-7.5 0,-1.071 0,-1.071 1.071,-1.071 3.061,0 6.122,0 9.183,0 0.919,0 0.919,0 0.919,1.071 0,2.449 0,4.898 0,7.347 0,1.071 0,1.071 1.071,1.071 2.296,0 4.438,0 6.734,0 1.071,0 1.071,0 1.071,1.072 0,1.836 0,3.52 0,5.356 0,1.071 0,1.071 -1.071,1.071 -2.143,0 -4.438,0 -6.581,0 -1.072,0 -1.072,0 -1.072,1.071 0,3.827 0,7.806 0,11.632 0,3.062 1.531,4.285 4.593,3.521 0.765,-0.153 1.529,-0.459 2.296,-0.766 0.306,-0.152 0.611,0 0.611,0.307 0.612,2.296 1.225,4.591 1.837,6.887 0.153,0.459 -0.152,0.766 -0.459,0.919 -1.378,0.612 -2.908,1.225 -4.438,1.53 -2.296,0.459 -4.744,0.612 -7.04,0.153 -5.204,-0.918 -8.418,-4.744 -8.571,-9.948 -0.308,-2.142 -0.155,-4.438 -0.155,-6.886 z"
       id="path99"
       inkscape:connector-curvature="0"
       style="fill:#42aa78" /><path
       d="m 517.929,423.275 c 0,-7.347 0,-14.692 0,-22.04 0,-1.377 -0.153,-1.377 1.378,-1.377 2.907,0 5.815,0 8.724,0 1.225,0 1.225,0 1.225,1.225 0,5.51 0,11.019 0,16.529 0,9.184 0,18.213 0,27.396 0,0.306 0,0.612 0,1.071 0,0.612 -0.153,0.766 -0.766,0.766 -3.214,0 -6.428,0 -9.796,0 -0.611,0 -0.765,-0.153 -0.765,-0.766 0,-0.306 0,-0.612 0,-1.071 0,-7.193 0,-14.387 0,-21.733 z"
       id="path101"
       inkscape:connector-curvature="0"
       style="fill:#42aa78" /></g></svg>